<svg xmlns="http://www.w3.org/2000/svg" xmlns:xlink="http://www.w3.org/1999/xlink" width="225" zoomAndPan="magnify" viewBox="0 0 168.75 84.749999" height="113" preserveAspectRatio="xMidYMid meet" version="1.0"><defs><clipPath id="dd603a3090"><path d="M 47.753906 3.042969 L 118.15625 3.042969 L 118.15625 37.777344 L 47.753906 37.777344 Z M 47.753906 3.042969 " clip-rule="nonzero"/></clipPath><clipPath id="47d8b0aa2e"><path d="M 82.949219 13.714844 C 82.847656 13.816406 82.847656 13.917969 82.796875 14.023438 C 80.800781 18.472656 78.753906 22.925781 76.757812 27.378906 C 75.9375 29.21875 75.070312 31.0625 74.25 32.90625 C 73.53125 34.542969 72.355469 35.820312 70.769531 36.691406 C 69.851562 37.203125 68.875 37.511719 67.851562 37.613281 C 65.445312 37.871094 63.347656 37.152344 61.558594 35.566406 C 60.742188 34.851562 60.125 33.980469 59.664062 32.957031 C 58.285156 29.9375 56.953125 26.917969 55.570312 23.898438 C 53.113281 18.421875 50.660156 12.996094 48.199219 7.574219 C 47.996094 7.113281 47.84375 6.597656 47.894531 6.089844 C 47.945312 4.554688 49.121094 3.425781 50.351562 3.222656 C 51.679688 2.964844 53.113281 3.683594 53.726562 5.015625 C 56.339844 10.746094 58.949219 16.425781 61.558594 22.15625 C 62.785156 24.867188 64.015625 27.582031 65.242188 30.246094 C 65.292969 30.347656 65.292969 30.398438 65.347656 30.5 C 65.703125 31.113281 66.214844 31.46875 66.929688 31.523438 C 67.648438 31.523438 68.210938 31.214844 68.621094 30.550781 C 68.671875 30.5 68.671875 30.398438 68.722656 30.347656 C 72.203125 22.667969 75.683594 14.992188 79.214844 7.316406 C 79.519531 6.597656 79.878906 5.882812 80.1875 5.167969 C 80.339844 4.808594 80.59375 4.449219 80.902344 4.144531 C 82.4375 2.609375 84.945312 3.171875 85.765625 5.015625 C 86.277344 6.136719 86.789062 7.214844 87.300781 8.339844 C 90.625 15.660156 93.953125 23.027344 97.28125 30.347656 C 97.433594 30.652344 97.640625 30.960938 97.894531 31.164062 C 98.96875 31.984375 100.300781 31.371094 100.707031 30.5 C 101.066406 29.785156 101.375 29.015625 101.730469 28.300781 C 105.210938 20.570312 108.746094 12.894531 112.222656 5.167969 C 112.53125 4.5 112.992188 3.992188 113.605469 3.632812 C 115.5 2.660156 117.597656 3.734375 118.058594 5.675781 C 118.210938 6.34375 118.109375 7.007812 117.855469 7.675781 C 117.394531 8.699219 116.933594 9.671875 116.472656 10.695312 C 113.09375 18.164062 109.664062 25.636719 106.289062 33.058594 C 105.210938 35.464844 103.320312 36.949219 100.761719 37.511719 C 97.074219 38.332031 93.390625 36.433594 91.855469 33.058594 C 88.988281 26.710938 86.074219 20.367188 83.15625 14.023438 C 83.054688 13.867188 83.054688 13.761719 82.949219 13.714844 " clip-rule="nonzero"/></clipPath><clipPath id="0e3df807dc"><path d="M 122.964844 3.042969 L 159.097656 3.042969 L 159.097656 37.625 L 122.964844 37.625 Z M 122.964844 3.042969 " clip-rule="nonzero"/></clipPath><clipPath id="583cd6f1d8"><path d="M 143.03125 3.171875 L 153.832031 3.171875 C 154.652344 3.171875 155.417969 3.425781 156.03125 3.992188 C 156.695312 4.605469 157.054688 5.371094 157.003906 6.242188 C 157.003906 7.726562 156.03125 8.75 154.804688 9.105469 C 154.546875 9.210938 154.238281 9.261719 153.933594 9.261719 L 133.003906 9.261719 C 132.027344 9.261719 131.160156 9.566406 130.441406 10.179688 C 129.367188 11.101562 128.855469 12.332031 129.011719 13.714844 C 129.214844 15.503906 130.542969 16.9375 132.335938 17.242188 C 132.59375 17.296875 132.902344 17.296875 133.15625 17.296875 L 148.917969 17.296875 C 153.269531 17.296875 157.15625 20.109375 158.488281 24.207031 C 158.894531 25.433594 159.050781 26.660156 159 27.941406 C 158.742188 32.445312 155.675781 36.078125 151.632812 37.203125 C 150.710938 37.460938 149.789062 37.5625 148.816406 37.5625 L 128.140625 37.5625 C 127.578125 37.5625 127.066406 37.460938 126.605469 37.203125 C 125.324219 36.589844 124.761719 35.207031 124.964844 34.03125 C 125.121094 32.75 126.144531 31.730469 127.421875 31.46875 C 127.628906 31.421875 127.78125 31.421875 127.984375 31.421875 L 148.816406 31.421875 C 149.328125 31.421875 149.789062 31.371094 150.25 31.214844 C 151.734375 30.652344 152.65625 29.628906 152.910156 28.042969 C 153.214844 26.355469 152.347656 24.714844 150.914062 23.898438 C 150.351562 23.589844 149.6875 23.386719 149.019531 23.386719 L 133.15625 23.386719 C 131.671875 23.386719 130.1875 23.078125 128.855469 22.464844 C 126.039062 21.132812 123.941406 18.625 123.226562 15.605469 C 122.972656 14.53125 122.917969 13.457031 123.023438 12.332031 C 123.328125 8.953125 125.378906 5.832031 128.5 4.246094 C 129.519531 3.734375 130.542969 3.375 131.671875 3.222656 C 132.179688 3.171875 132.695312 3.117188 133.207031 3.117188 C 136.429688 3.171875 139.757812 3.171875 143.03125 3.171875 " clip-rule="nonzero"/></clipPath><clipPath id="b0878e56b3"><path d="M 7.746094 3.042969 L 43.992188 3.042969 L 43.992188 37.625 L 7.746094 37.625 Z M 7.746094 3.042969 " clip-rule="nonzero"/></clipPath><clipPath id="7c9315ec15"><path d="M 22.101562 3.171875 L 32.285156 3.171875 C 37.8125 3.171875 42.113281 6.90625 43.441406 11.410156 C 43.695312 12.277344 43.851562 13.152344 43.902344 14.070312 C 44.003906 16.015625 43.695312 17.859375 42.929688 19.597656 C 41.445312 22.875 38.476562 25.328125 34.996094 26.199219 C 34.027344 26.40625 33.050781 26.507812 32.082031 26.507812 L 13.960938 26.507812 C 13.914062 26.507812 13.914062 26.558594 13.914062 26.558594 L 13.914062 34.390625 C 13.914062 34.902344 13.859375 35.359375 13.65625 35.820312 C 13.195312 36.847656 12.378906 37.410156 11.300781 37.5625 C 9.871094 37.765625 8.335938 36.894531 7.925781 35.3125 C 7.875 35.054688 7.820312 34.796875 7.820312 34.542969 L 7.820312 23.488281 C 7.820312 22.976562 7.925781 22.464844 8.128906 22.003906 C 8.691406 20.980469 9.613281 20.367188 10.792969 20.316406 L 32.234375 20.316406 C 33.460938 20.316406 34.589844 19.957031 35.609375 19.242188 C 36.789062 18.371094 37.554688 17.195312 37.8125 15.707031 C 38.070312 13.917969 37.554688 12.382812 36.328125 11.050781 C 35.558594 10.234375 34.640625 9.71875 33.566406 9.464844 C 33.15625 9.363281 32.695312 9.3125 32.285156 9.3125 L 10.996094 9.3125 C 10.535156 9.3125 10.125 9.261719 9.71875 9.058594 C 8.589844 8.597656 7.875 7.519531 7.820312 6.34375 C 7.773438 4.910156 8.742188 3.578125 10.226562 3.273438 C 10.484375 3.222656 10.738281 3.171875 10.996094 3.171875 Z M 22.101562 3.171875 " clip-rule="nonzero"/></clipPath><clipPath id="cf257e2103"><path d="M 7.664062 46.359375 L 41.875 46.359375 L 41.875 79.972656 L 7.664062 79.972656 Z M 7.664062 46.359375 " clip-rule="nonzero"/></clipPath><clipPath id="c6de09f134"><path d="M 39.234375 54.132812 C 39.183594 54.179688 39.136719 54.179688 39.136719 54.179688 L 37.917969 54.179688 C 37.769531 54.179688 37.71875 54.132812 37.621094 54.035156 C 37.234375 53.496094 36.792969 53.058594 36.351562 52.570312 C 34.109375 50.277344 31.472656 48.714844 28.347656 48.03125 C 26.789062 47.691406 25.226562 47.542969 23.664062 47.640625 C 21.660156 47.738281 19.710938 48.226562 17.855469 49.105469 C 13.855469 51.007812 10.925781 54.472656 9.753906 58.71875 C 9.460938 59.695312 9.316406 60.671875 9.214844 61.699219 C 9.117188 62.574219 9.117188 63.453125 9.167969 64.285156 C 9.460938 68.140625 10.828125 71.457031 13.5625 74.195312 C 15.414062 76.09375 17.660156 77.363281 20.199219 78.09375 C 21.46875 78.484375 22.835938 78.683594 24.152344 78.683594 C 28.640625 78.78125 32.59375 77.316406 35.914062 74.242188 C 37.28125 72.972656 38.402344 71.507812 39.234375 69.796875 C 39.625 68.972656 39.964844 68.042969 40.160156 67.117188 C 40.160156 67.015625 40.207031 66.917969 40.207031 66.824219 C 40.109375 66.773438 39.964844 66.773438 39.867188 66.773438 L 21.269531 66.773438 C 20.882812 66.773438 20.929688 66.824219 20.929688 66.433594 L 20.929688 65.796875 C 20.929688 65.601562 20.929688 65.601562 21.125 65.601562 L 41.429688 65.601562 C 41.773438 65.601562 41.773438 65.550781 41.722656 65.941406 C 41.574219 67.117188 41.28125 68.238281 40.84375 69.3125 C 40.0625 71.261719 38.941406 72.972656 37.527344 74.484375 C 35.277344 76.828125 32.546875 78.390625 29.421875 79.269531 C 28.398438 79.558594 27.324219 79.757812 26.25 79.851562 C 25.226562 79.949219 24.25 79.949219 23.226562 79.902344 C 21.46875 79.757812 19.710938 79.367188 18.050781 78.730469 C 12.925781 76.679688 9.460938 72.4375 8.242188 67.507812 C 7.996094 66.53125 7.851562 65.601562 7.75 64.578125 C 7.703125 63.84375 7.703125 63.160156 7.703125 62.429688 C 7.898438 58.429688 9.214844 54.914062 11.898438 51.890625 C 13.804688 49.789062 16.097656 48.277344 18.785156 47.347656 C 19.902344 46.957031 21.027344 46.714844 22.199219 46.566406 C 23.417969 46.417969 24.691406 46.371094 25.910156 46.46875 C 28.203125 46.667969 30.398438 47.25 32.449219 48.226562 C 34.109375 49.007812 35.570312 50.03125 36.890625 51.300781 C 37.71875 52.082031 38.402344 52.960938 39.039062 53.9375 C 39.183594 53.9375 39.234375 54.035156 39.234375 54.132812 " clip-rule="nonzero"/></clipPath><clipPath id="2e73de6c12"><path d="M 69.632812 46.359375 L 103.394531 46.359375 L 103.394531 79.972656 L 69.632812 79.972656 Z M 69.632812 46.359375 " clip-rule="nonzero"/></clipPath><clipPath id="bfb7a8e6e8"><path d="M 86.476562 47.542969 C 85.890625 47.542969 85.257812 47.59375 84.574219 47.640625 C 83.597656 47.738281 82.621094 47.984375 81.695312 48.277344 C 78.960938 49.152344 76.621094 50.667969 74.765625 52.816406 C 72.617188 55.304688 71.445312 58.230469 71.101562 61.453125 C 71.007812 62.429688 71.007812 63.40625 71.054688 64.382812 C 71.152344 65.503906 71.347656 66.625 71.640625 67.699219 C 72.617188 71.019531 74.523438 73.753906 77.351562 75.753906 C 80.179688 77.800781 83.402344 78.683594 86.867188 78.632812 C 88.089844 78.632812 89.257812 78.4375 90.429688 78.144531 C 93.3125 77.410156 95.753906 75.996094 97.800781 73.851562 C 100.4375 71.019531 101.753906 67.652344 101.949219 63.796875 C 102 62.917969 101.949219 62.039062 101.851562 61.160156 C 101.707031 59.988281 101.460938 58.867188 101.070312 57.746094 C 99.902344 54.472656 97.898438 51.890625 95.019531 49.984375 C 92.480469 48.375 89.648438 47.59375 86.476562 47.542969 M 69.734375 63.210938 C 69.734375 60.71875 70.175781 58.429688 71.152344 56.179688 C 72.957031 52.132812 75.9375 49.300781 80.035156 47.640625 C 81.253906 47.152344 82.527344 46.8125 83.84375 46.617188 C 85.0625 46.417969 86.285156 46.371094 87.5 46.417969 C 91.113281 46.617188 94.335938 47.785156 97.167969 50.03125 C 99.902344 52.230469 101.753906 55.058594 102.730469 58.429688 C 102.976562 59.355469 103.167969 60.328125 103.265625 61.308594 C 103.367188 62.085938 103.367188 62.867188 103.367188 63.648438 C 103.265625 67.164062 102.242188 70.386719 100.144531 73.214844 C 98.289062 75.753906 95.847656 77.558594 92.921875 78.730469 C 91.75 79.21875 90.53125 79.511719 89.257812 79.707031 C 88.136719 79.902344 86.964844 79.949219 85.84375 79.902344 C 83.160156 79.757812 80.570312 79.121094 78.230469 77.753906 C 74.375 75.558594 71.785156 72.289062 70.519531 68.042969 C 70.226562 67.066406 70.03125 66.042969 69.933594 64.96875 C 69.785156 64.382812 69.734375 63.75 69.734375 63.210938 " clip-rule="nonzero"/></clipPath><clipPath id="0321208c8e"><path d="M 46.246094 46.8125 L 67.082031 46.8125 L 67.082031 79.371094 L 46.246094 79.371094 Z M 46.246094 46.8125 " clip-rule="nonzero"/></clipPath><clipPath id="6adf5c5fc3"><path d="M 56.167969 67.164062 C 56.367188 67.457031 56.609375 67.796875 56.804688 68.089844 C 57 68.382812 57.242188 68.722656 57.4375 69.019531 C 57.683594 69.3125 57.875 69.65625 58.121094 69.945312 C 58.367188 70.238281 58.558594 70.582031 58.804688 70.871094 C 59 71.164062 59.242188 71.507812 59.441406 71.800781 C 59.683594 72.09375 59.878906 72.4375 60.121094 72.726562 C 60.367188 73.019531 60.5625 73.363281 60.804688 73.65625 C 61.046875 73.945312 61.246094 74.289062 61.488281 74.582031 C 61.683594 74.875 61.929688 75.21875 62.121094 75.511719 C 62.367188 75.800781 62.5625 76.144531 62.804688 76.4375 C 63.050781 76.730469 63.246094 77.070312 63.488281 77.363281 C 63.6875 77.660156 63.929688 78 64.125 78.292969 C 64.371094 78.585938 64.5625 78.925781 64.808594 79.21875 C 64.761719 79.21875 64.761719 79.269531 64.710938 79.269531 L 63.246094 79.269531 C 63.148438 79.269531 63.097656 79.21875 63.050781 79.167969 C 62.90625 78.976562 62.757812 78.730469 62.613281 78.535156 C 59.683594 74.4375 56.804688 70.335938 53.875 66.1875 C 53.828125 66.089844 53.726562 66.042969 53.726562 65.941406 C 53.828125 65.894531 53.875 65.894531 53.972656 65.894531 L 55.730469 65.894531 C 56.558594 65.894531 57.4375 65.847656 58.265625 65.75 C 59.242188 65.601562 60.222656 65.40625 61.148438 65.015625 C 61.929688 64.675781 62.613281 64.183594 63.195312 63.550781 C 64.027344 62.574219 64.710938 61.550781 65.148438 60.28125 C 65.394531 59.597656 65.539062 58.914062 65.585938 58.183594 C 65.636719 57.597656 65.6875 57.011719 65.636719 56.476562 C 65.492188 54.179688 64.710938 52.179688 63.148438 50.519531 C 62.171875 49.496094 61 48.8125 59.632812 48.46875 C 59 48.324219 58.316406 48.226562 57.632812 48.175781 C 56.507812 48.082031 55.386719 48.082031 54.265625 48.082031 L 47.871094 48.082031 C 47.53125 48.082031 47.578125 48.03125 47.578125 48.375 L 47.578125 78.875 C 47.578125 79.023438 47.628906 79.167969 47.53125 79.21875 C 47.429688 79.316406 47.285156 79.269531 47.1875 79.269531 L 46.359375 79.269531 C 46.261719 79.269531 46.261719 79.21875 46.261719 79.121094 L 46.261719 47.25 C 46.261719 46.8125 46.214844 46.859375 46.605469 46.859375 L 53.828125 46.859375 C 54.898438 46.859375 55.972656 46.859375 57.046875 46.957031 C 57.925781 47.007812 58.855469 47.101562 59.730469 47.300781 C 60.660156 47.492188 61.488281 47.785156 62.320312 48.226562 C 63.195312 48.714844 63.929688 49.300781 64.5625 50.03125 C 65.34375 50.957031 65.929688 52.03125 66.371094 53.15625 C 66.808594 54.328125 67.003906 55.546875 67.003906 56.769531 C 67.003906 57.253906 67.003906 57.746094 66.953125 58.230469 C 66.808594 59.644531 66.371094 60.964844 65.734375 62.183594 C 65.246094 63.066406 64.660156 63.84375 63.929688 64.527344 C 62.855469 65.550781 61.585938 66.234375 60.121094 66.578125 C 59.488281 66.722656 58.855469 66.824219 58.171875 66.871094 C 57.535156 66.917969 56.949219 66.96875 56.316406 66.96875 C 56.21875 67.117188 56.167969 67.117188 56.167969 67.164062 " clip-rule="nonzero"/></clipPath><clipPath id="dc15defd03"><path d="M 108.488281 46.90625 L 128.355469 46.90625 L 128.355469 79.960938 L 108.488281 79.960938 Z M 108.488281 46.90625 " clip-rule="nonzero"/></clipPath><clipPath id="045e0cdd7e"><path d="M 108.488281 47.003906 C 108.539062 47.003906 108.539062 46.957031 108.589844 46.957031 L 109.710938 46.957031 C 109.804688 46.957031 109.804688 46.957031 109.804688 47.054688 L 109.804688 69.554688 C 109.804688 70.433594 109.90625 71.308594 110.101562 72.1875 C 110.246094 72.773438 110.441406 73.359375 110.6875 73.898438 C 111.027344 74.628906 111.515625 75.359375 112.054688 75.996094 C 112.738281 76.773438 113.566406 77.363281 114.492188 77.800781 C 115.371094 78.242188 116.347656 78.484375 117.324219 78.632812 C 119.519531 78.921875 121.523438 78.4375 123.375 77.214844 C 124.253906 76.679688 124.890625 75.949219 125.472656 75.066406 C 126.109375 74.140625 126.546875 73.117188 126.792969 71.992188 C 126.890625 71.503906 126.9375 71.019531 126.988281 70.527344 C 127.035156 69.894531 127.035156 69.308594 127.035156 68.675781 L 127.035156 46.957031 C 127.085938 46.90625 127.183594 46.90625 127.230469 46.90625 L 128.207031 46.90625 C 128.355469 46.90625 128.355469 46.90625 128.355469 47.054688 L 128.355469 67.699219 C 128.355469 68.480469 128.355469 69.210938 128.304688 69.992188 C 128.253906 71.210938 128.0625 72.382812 127.671875 73.558594 C 127.085938 75.3125 126.011719 76.773438 124.496094 77.898438 C 123.28125 78.78125 121.914062 79.363281 120.449219 79.707031 C 119.472656 79.898438 118.496094 79.949219 117.46875 79.851562 C 115.324219 79.65625 113.417969 78.828125 111.808594 77.460938 C 110.589844 76.433594 109.757812 75.167969 109.269531 73.652344 C 108.980469 72.773438 108.78125 71.847656 108.6875 70.871094 C 108.589844 70.136719 108.589844 69.40625 108.589844 68.628906 L 108.589844 47.296875 C 108.488281 47.199219 108.488281 47.101562 108.488281 47.003906 " clip-rule="nonzero"/></clipPath><clipPath id="aac2aec77f"><path d="M 134.480469 46.949219 L 153.453125 46.949219 L 153.453125 79.4375 L 134.480469 79.4375 Z M 134.480469 46.949219 " clip-rule="nonzero"/></clipPath><clipPath id="a64f1d748a"><path d="M 135.871094 56.132812 L 135.871094 63.84375 C 135.871094 64.183594 135.820312 64.136719 136.164062 64.136719 L 143.238281 64.136719 C 144.117188 64.089844 145.042969 64.039062 145.925781 63.890625 C 147.09375 63.699219 148.214844 63.257812 149.191406 62.574219 C 149.828125 62.132812 150.316406 61.648438 150.753906 61.011719 C 151.679688 59.550781 152.121094 57.9375 152.171875 56.179688 C 152.171875 55.546875 152.121094 54.910156 151.976562 54.277344 C 151.78125 53.300781 151.390625 52.371094 150.902344 51.496094 C 150.558594 50.957031 150.21875 50.519531 149.730469 50.128906 C 149.144531 49.640625 148.507812 49.296875 147.824219 49.007812 C 146.898438 48.613281 145.925781 48.421875 144.949219 48.324219 C 144.066406 48.222656 143.191406 48.175781 142.3125 48.222656 L 136.40625 48.222656 C 136.261719 48.222656 136.113281 48.175781 135.964844 48.273438 C 135.917969 48.421875 135.964844 48.515625 135.964844 48.664062 C 135.871094 51.105469 135.871094 53.644531 135.871094 56.132812 M 134.550781 63.113281 L 134.550781 47.296875 C 134.550781 46.859375 134.503906 46.957031 134.894531 46.957031 L 142.261719 46.957031 C 143.09375 46.957031 143.96875 46.957031 144.800781 47.054688 C 145.875 47.148438 146.949219 47.296875 147.972656 47.6875 C 149.046875 48.082031 150.023438 48.664062 150.855469 49.445312 C 151.539062 50.128906 152.074219 50.910156 152.464844 51.738281 C 152.953125 52.8125 153.292969 53.9375 153.390625 55.105469 C 153.636719 57.300781 153.144531 59.351562 152.074219 61.257812 C 151.195312 62.816406 149.875 63.84375 148.214844 64.527344 C 147.535156 64.820312 146.753906 65.015625 146.023438 65.113281 C 144.949219 65.257812 143.921875 65.355469 142.851562 65.355469 L 136.210938 65.355469 C 135.820312 65.355469 135.871094 65.308594 135.871094 65.699219 L 135.871094 79.121094 C 135.871094 79.363281 135.871094 79.363281 135.671875 79.363281 L 134.699219 79.363281 C 134.597656 79.363281 134.550781 79.363281 134.550781 79.214844 Z M 134.550781 63.113281 " clip-rule="nonzero"/></clipPath></defs><g clip-path="url(#dd603a3090)"><g clip-path="url(#47d8b0aa2e)"><path fill="#ffffff" d="M 5.261719 0.558594 L 161.578125 0.558594 L 161.578125 40.261719 L 5.261719 40.261719 Z M 5.261719 0.558594 " fill-opacity="1" fill-rule="nonzero"/></g></g><g clip-path="url(#0e3df807dc)"><g clip-path="url(#583cd6f1d8)"><path fill="#ffffff" d="M 5.261719 0.558594 L 161.578125 0.558594 L 161.578125 40.261719 L 5.261719 40.261719 Z M 5.261719 0.558594 " fill-opacity="1" fill-rule="nonzero"/></g></g><g clip-path="url(#b0878e56b3)"><g clip-path="url(#7c9315ec15)"><path fill="#ffffff" d="M 5.261719 0.558594 L 161.578125 0.558594 L 161.578125 40.261719 L 5.261719 40.261719 Z M 5.261719 0.558594 " fill-opacity="1" fill-rule="nonzero"/></g></g><g clip-path="url(#cf257e2103)"><g clip-path="url(#c6de09f134)"><path fill="#ffffff" d="M 5.261719 43.960938 L 105.796875 43.960938 L 105.796875 82.375 L 5.261719 82.375 Z M 5.261719 43.960938 " fill-opacity="1" fill-rule="nonzero"/></g></g><g clip-path="url(#2e73de6c12)"><g clip-path="url(#bfb7a8e6e8)"><path fill="#ffffff" d="M 5.261719 43.960938 L 105.796875 43.960938 L 105.796875 82.375 L 5.261719 82.375 Z M 5.261719 43.960938 " fill-opacity="1" fill-rule="nonzero"/></g></g><g clip-path="url(#0321208c8e)"><g clip-path="url(#6adf5c5fc3)"><path fill="#ffffff" d="M 5.261719 43.960938 L 105.796875 43.960938 L 105.796875 82.375 L 5.261719 82.375 Z M 5.261719 43.960938 " fill-opacity="1" fill-rule="nonzero"/></g></g><g clip-path="url(#dc15defd03)"><g clip-path="url(#045e0cdd7e)"><path fill="#ffffff" d="M 108.488281 46.90625 L 128.355469 46.90625 L 128.355469 79.886719 L 108.488281 79.886719 Z M 108.488281 46.90625 " fill-opacity="1" fill-rule="nonzero"/></g></g><g clip-path="url(#aac2aec77f)"><g clip-path="url(#a64f1d748a)"><path fill="#ffffff" d="M 134.550781 46.949219 L 153.453125 46.949219 L 153.453125 79.363281 L 134.550781 79.363281 Z M 134.550781 46.949219 " fill-opacity="1" fill-rule="nonzero"/></g></g></svg>